<mxfile host="app.diagrams.net" modified="2023-11-15T04:29:55.085Z" agent="Mozilla/5.0 (Windows NT 10.0; Win64; x64) AppleWebKit/537.36 (KHTML, like Gecko) Chrome/119.0.0.0 Safari/537.36" etag="vJpsIWbqXm8Q2_2kvWWu" version="22.1.1" type="github">
  <diagram name="Page-1" id="5987fedf-629e-85c4-6858-42fee31821dd">
    <mxGraphModel dx="1909" dy="985" grid="1" gridSize="10" guides="1" tooltips="1" connect="1" arrows="1" fold="1" page="1" pageScale="1.5" pageWidth="1169" pageHeight="826" background="none" math="0" shadow="0">
      <root>
        <mxCell id="0" style=";html=1;" />
        <mxCell id="1" style=";html=1;" parent="0" />
        <mxCell id="2a5a01dd2e413fbf-1" value="Question Management Service" style="ellipse;whiteSpace=wrap;html=1;rounded=0;shadow=0;strokeWidth=1;fillColor=#dae8fc;fontSize=24;align=center;strokeColor=#6c8ebf;opacity=50;" parent="1" vertex="1">
          <mxGeometry x="430" y="120" width="458" height="230" as="geometry" />
        </mxCell>
        <mxCell id="2a5a01dd2e413fbf-2" value="Collaboration Management Service" style="ellipse;whiteSpace=wrap;html=1;rounded=0;shadow=0;strokeWidth=1;fillColor=#d5e8d4;fontSize=24;align=center;strokeColor=#82b366;opacity=50;" parent="1" vertex="1">
          <mxGeometry x="740" y="720" width="450" height="391" as="geometry" />
        </mxCell>
        <mxCell id="2a5a01dd2e413fbf-3" value="" style="ellipse;whiteSpace=wrap;html=1;rounded=0;shadow=0;strokeWidth=1;fillColor=#ffe6cc;fontSize=24;align=center;strokeColor=#d79b00;opacity=50;" parent="1" vertex="1">
          <mxGeometry x="130" y="1160" width="380" height="180" as="geometry" />
        </mxCell>
        <mxCell id="2a5a01dd2e413fbf-7" value="Matchmaking User Managment" style="ellipse;whiteSpace=wrap;html=1;rounded=0;shadow=0;strokeWidth=1;fillColor=#d5e8d4;fontSize=24;align=center;strokeColor=#82b366;opacity=50;" parent="1" vertex="1">
          <mxGeometry x="1250" y="570" width="350" height="390" as="geometry" />
        </mxCell>
        <mxCell id="2a5a01dd2e413fbf-8" value="User Management Service" style="ellipse;whiteSpace=wrap;html=1;rounded=0;shadow=0;strokeWidth=1;fillColor=#ffe6cc;fontSize=24;align=center;strokeColor=#d79b00;opacity=50;" parent="1" vertex="1">
          <mxGeometry x="300" y="390" width="380" height="370" as="geometry" />
        </mxCell>
        <mxCell id="2a5a01dd2e413fbf-9" value="History Management Service" style="ellipse;whiteSpace=wrap;html=1;rounded=0;shadow=0;strokeWidth=1;fillColor=#fff2cc;fontSize=24;align=center;strokeColor=#d6b656;opacity=50;" parent="1" vertex="1">
          <mxGeometry x="1080" y="95" width="340" height="280" as="geometry" />
        </mxCell>
      </root>
    </mxGraphModel>
  </diagram>
</mxfile>
